<svg width="205" height="156" viewBox="0 0 205 156" fill="none" xmlns="http://www.w3.org/2000/svg">
<path d="M4 151.668V143.001C4 109.497 32.0636 82.337 66.6818 82.337C101.3 82.337 129.364 109.497 129.364 143.001V151.668" stroke="#FFD36C" stroke-width="7" stroke-linecap="round"/>
<path d="M111.455 99.6698C111.455 75.7386 131.5 56.3381 156.227 56.3381C180.954 56.3381 201 75.7386 201 99.6698V104.003" stroke="#FFD36C" stroke-width="7" stroke-linecap="round"/>
<path d="M66.6819 82.3369C86.4634 82.3369 102.5 66.8164 102.5 47.6716C102.5 28.5264 86.4634 13.0062 66.6819 13.0062C46.9001 13.0062 30.8638 28.5264 30.8638 47.6716C30.8638 66.8164 46.9001 82.3369 66.6819 82.3369Z" stroke="#FFD36C" stroke-width="7" stroke-linecap="round" stroke-linejoin="round"/>
<path d="M156.227 56.338C171.064 56.338 183.091 44.6978 183.091 30.339C183.091 15.9802 171.064 4.33997 156.227 4.33997C141.391 4.33997 129.364 15.9802 129.364 30.339C129.364 44.6978 141.391 56.338 156.227 56.338Z" stroke="#FFD36C" stroke-width="7" stroke-linecap="round" stroke-linejoin="round"/>
</svg>
