<svg width="53" height="38" viewBox="0 0 53 38" fill="none" xmlns="http://www.w3.org/2000/svg">
<g id="&#240;&#159;&#166;&#134; icon &#34;youtube&#34;">
<path id="Vector" d="M31.5083 18.6046L22.728 13.6456V23.5637L31.5083 18.6046Z" stroke="#FFD36C" stroke-width="2" stroke-linecap="round" stroke-linejoin="round"/>
<path id="Vector_2" d="M1.40466 16.8504V20.3592C1.40466 27.5384 1.40466 31.1279 3.6762 33.4375C5.94777 35.7472 9.524 35.8471 16.6764 36.0471C20.0657 36.1418 23.5278 36.2097 26.491 36.2097C29.4542 36.2097 32.9163 36.1418 36.3055 36.0471C43.4578 35.8471 47.0341 35.7472 49.3057 33.4375C51.5773 31.1279 51.5773 27.5384 51.5773 20.3592V16.8504C51.5773 9.67142 51.5773 6.08179 49.3057 3.77234C47.0341 1.46265 43.4581 1.36272 36.3057 1.16262C32.9163 1.0679 29.4542 0.999962 26.491 0.999962C23.5278 0.999962 20.0655 1.0679 16.6762 1.16262C9.52387 1.36272 5.94772 1.46265 3.67618 3.77234C1.40466 6.08179 1.40466 9.67142 1.40466 16.8504Z" stroke="#FFD36C" stroke-width="2"/>
</g>
</svg>
