<svg width="39" height="38" viewBox="0 0 39 38" fill="none" xmlns="http://www.w3.org/2000/svg">
<g id="&#240;&#159;&#166;&#134; icon &#34;instagram&#34;">
<path id="Vector" d="M19.7889 27C24.2589 27 27.8827 23.4182 27.8827 19C27.8827 14.5817 24.2589 11 19.7889 11C15.3188 11 11.6951 14.5817 11.6951 19C11.6951 23.4182 15.3188 27 19.7889 27Z" stroke="#FFD36C" stroke-width="2" stroke-linecap="round" stroke-linejoin="round"/>
<path id="Vector_2" d="M1.57776 27V11C1.57776 5.47716 6.10743 1 11.695 1H27.8827C33.4703 1 38 5.47716 38 11V27C38 32.5228 33.4703 37 27.8827 37H11.695C6.10743 37 1.57776 32.5228 1.57776 27Z" stroke="#FFD36C" stroke-width="2"/>
<path id="Vector_3" d="M30.918 8.02105L30.9389 7.9978" stroke="#FFD36C" stroke-width="2" stroke-linecap="round" stroke-linejoin="round"/>
</g>
</svg>
