<?xml version="1.0" encoding="UTF-8"?>
<svg id="Layer_2" data-name="Layer 2" xmlns="http://www.w3.org/2000/svg" viewBox="0 0 343.43 92.95">
  <g id="Layer_1-2" data-name="Layer 1">
    <g>
      <path d="M32.93,92.95c-7.24,0-13.46-1.11-18.66-3.34-5.2-2.22-9.04-5.52-11.53-9.89-2.49-4.37-3.29-9.75-2.4-16.14h18.02c-.28,3.03.2,5.57,1.46,7.61,1.25,2.04,3.1,3.57,5.55,4.58,2.45,1.01,5.35,1.52,8.71,1.52s6.23-.47,8.86-1.43c2.63-.95,4.77-2.29,6.43-4.03s2.67-3.76,3.03-6.07c.36-2.06.05-3.79-.94-5.19-.99-1.39-2.56-2.59-4.7-3.58-2.14-.99-4.81-1.89-8.01-2.7l-9.59-2.49c-7.12-1.78-12.57-4.63-16.35-8.56-3.78-3.92-5.13-9.24-4.04-15.96.85-5.46,2.98-10.23,6.4-14.32,3.42-4.08,7.77-7.27,13.07-9.56,5.3-2.28,11.22-3.43,17.78-3.43s12.41,1.14,17.2,3.43c4.79,2.29,8.36,5.45,10.71,9.49,2.35,4.05,3.11,8.74,2.31,14.08h-17.84c.24-3.6-.85-6.4-3.28-8.4-2.43-2-5.97-3-10.62-3-3.15,0-5.91.44-8.28,1.33-2.37.89-4.25,2.12-5.64,3.7s-2.28,3.38-2.64,5.4c-.36,2.18,0,4.01,1.09,5.49,1.09,1.48,2.67,2.68,4.73,3.61,2.06.93,4.33,1.7,6.79,2.31l7.77,2c3.64.89,6.98,2.05,10.01,3.49,3.03,1.44,5.61,3.22,7.74,5.34s3.63,4.63,4.52,7.52,1.03,6.26.43,10.1c-.89,5.46-2.95,10.22-6.19,14.29-3.24,4.06-7.53,7.21-12.89,9.43-5.36,2.22-11.7,3.34-19.02,3.34Z"/>
      <path d="M77.91,38.41l1.82-10.96h52.7l-1.82,10.96h-19.7l-8.88,53.57h-13.25l8.88-53.57h-19.75Z"/>
      <path d="M152.58,92.89c-5.43,0-10.03-1.02-13.82-3.05-3.78-2.04-6.51-4.86-8.18-8.49-1.67-3.62-2.12-7.77-1.34-12.45l6.89-41.45h13.21l-6.8,41.23c-.4,2.51-.24,4.71.5,6.58.74,1.88,1.96,3.33,3.68,4.37,1.72,1.04,3.86,1.56,6.43,1.56,2.8,0,5.36-.59,7.67-1.78,2.31-1.18,4.22-2.79,5.74-4.81,1.52-2.02,2.48-4.29,2.88-6.8l6.67-40.36h13.25l-6.97,42.31c-.78,4.71-2.53,8.79-5.26,12.26-2.73,3.46-6.19,6.14-10.39,8.03-4.2,1.89-8.91,2.84-14.14,2.84Z"/>
      <path d="M193.78,91.61L208.77,1.21h35.25c6.83,0,12.45,1.3,16.84,3.88,4.39,2.59,7.47,6.18,9.25,10.77,1.78,4.59,2.16,9.86,1.15,15.81-.93,5.99-3.06,11.25-6.4,15.8s-7.67,8.12-12.98,10.71c-5.32,2.59-11.44,3.88-18.35,3.88h-22.69l2.49-14.93h19.72c3.8,0,7.04-.67,9.71-2s4.79-3.16,6.37-5.49c1.58-2.33,2.61-4.97,3.09-7.92.49-3.03.32-5.69-.49-7.98-.81-2.28-2.34-4.06-4.58-5.34-2.25-1.27-5.29-1.91-9.13-1.91h-13.29l-12.44,75.11h-18.51Z"/>
      <path d="M289.3,27.45l-10.64,64.16h-13.13l10.64-64.16h13.13Z"/>
      <path d="M284.09,91.61l1.29-7.88,39.75-45.39h-32.34l1.81-10.9h48.83l-1.34,7.92-39.7,45.34h32.3l-1.81,10.9h-48.79Z"/>
    </g>
  </g>
</svg>