<svg width="87" height="19" viewBox="0 0 87 19" fill="none" xmlns="http://www.w3.org/2000/svg">
<path d="M4.224 12.312C4.224 12.888 4.328 13.376 4.536 13.776C4.744 14.176 5.016 14.504 5.352 14.76C5.704 15 6.112 15.184 6.576 15.312C7.04 15.424 7.52 15.48 8.016 15.48C8.352 15.48 8.712 15.456 9.096 15.408C9.48 15.344 9.84 15.232 10.176 15.072C10.512 14.912 10.792 14.696 11.016 14.424C11.24 14.136 11.352 13.776 11.352 13.344C11.352 12.88 11.2 12.504 10.896 12.216C10.608 11.928 10.224 11.688 9.744 11.496C9.264 11.304 8.72 11.136 8.112 10.992C7.504 10.848 6.888 10.688 6.264 10.512C5.624 10.352 5 10.16 4.392 9.936C3.784 9.696 3.24 9.392 2.76 9.024C2.28 8.656 1.888 8.2 1.584 7.656C1.296 7.096 1.152 6.424 1.152 5.64C1.152 4.76 1.336 4 1.704 3.36C2.088 2.704 2.584 2.16 3.192 1.728C3.8 1.296 4.488 0.975999 5.256 0.767999C6.024 0.559999 6.792 0.456 7.56 0.456C8.456 0.456 9.312 0.559999 10.128 0.767999C10.96 0.959999 11.696 1.28 12.336 1.728C12.976 2.176 13.48 2.752 13.848 3.456C14.232 4.144 14.424 4.984 14.424 5.976H10.776C10.744 5.464 10.632 5.04 10.44 4.704C10.264 4.368 10.024 4.104 9.72 3.912C9.416 3.72 9.064 3.584 8.664 3.504C8.28 3.424 7.856 3.384 7.392 3.384C7.088 3.384 6.784 3.416 6.48 3.48C6.176 3.544 5.896 3.656 5.64 3.816C5.4 3.976 5.2 4.176 5.04 4.416C4.88 4.656 4.8 4.96 4.8 5.328C4.8 5.664 4.864 5.936 4.992 6.144C5.12 6.352 5.368 6.544 5.736 6.72C6.12 6.896 6.64 7.072 7.296 7.248C7.968 7.424 8.84 7.648 9.912 7.92C10.232 7.984 10.672 8.104 11.232 8.28C11.808 8.44 12.376 8.704 12.936 9.072C13.496 9.44 13.976 9.936 14.376 10.56C14.792 11.168 15 11.952 15 12.912C15 13.696 14.848 14.424 14.544 15.096C14.24 15.768 13.784 16.352 13.176 16.848C12.584 17.328 11.84 17.704 10.944 17.976C10.064 18.248 9.04 18.384 7.872 18.384C6.928 18.384 6.008 18.264 5.112 18.024C4.232 17.8 3.448 17.44 2.76 16.944C2.088 16.448 1.552 15.816 1.152 15.048C0.752 14.28 0.56 13.368 0.576 12.312H4.224ZM21.0339 4.032H15.8979V0.863999H29.9379V4.032H24.8019V18H21.0339V4.032ZM46.4578 11.52C46.4578 13.84 45.8098 15.568 44.5138 16.704C43.2178 17.824 41.4258 18.384 39.1378 18.384C36.8178 18.384 35.0178 17.824 33.7378 16.704C32.4738 15.584 31.8418 13.856 31.8418 11.52V0.863999H35.6098V11.52C35.6098 11.984 35.6498 12.44 35.7298 12.888C35.8098 13.336 35.9778 13.736 36.2338 14.088C36.4898 14.424 36.8418 14.704 37.2898 14.928C37.7538 15.136 38.3698 15.24 39.1378 15.24C40.4818 15.24 41.4098 14.944 41.9218 14.352C42.4338 13.744 42.6898 12.8 42.6898 11.52V0.863999H46.4578V11.52ZM53.4709 8.928H56.3989C56.8309 8.928 57.2469 8.896 57.6469 8.832C58.0469 8.768 58.3989 8.648 58.7029 8.472C59.0069 8.28 59.2469 8.016 59.4229 7.68C59.6149 7.344 59.7109 6.904 59.7109 6.36C59.7109 5.816 59.6149 5.376 59.4229 5.04C59.2469 4.704 59.0069 4.448 58.7029 4.272C58.3989 4.08 58.0469 3.952 57.6469 3.888C57.2469 3.824 56.8309 3.792 56.3989 3.792H53.4709V8.928ZM49.7029 0.863999H57.4309C58.5029 0.863999 59.4149 1.024 60.1669 1.344C60.9189 1.648 61.5269 2.056 61.9909 2.568C62.4709 3.08 62.8149 3.664 63.0229 4.32C63.2469 4.976 63.3589 5.656 63.3589 6.36C63.3589 7.048 63.2469 7.728 63.0229 8.4C62.8149 9.056 62.4709 9.64 61.9909 10.152C61.5269 10.664 60.9189 11.08 60.1669 11.4C59.4149 11.704 58.5029 11.856 57.4309 11.856H53.4709V18H49.7029V0.863999ZM65.7107 0.863999H69.4787V18H65.7107V0.863999ZM71.6848 15.024L80.8768 4.032H72.4048V0.863999H85.8928V3.84L76.7008 14.832H86.1328V18H71.6848V15.024Z" fill="white"/>
</svg>
